<?xml version="1.0" standalone="no"?>
<!DOCTYPE svg PUBLIC "-//W3C//DTD SVG 20010904//EN"
 "http://www.w3.org/TR/2001/REC-SVG-20010904/DTD/svg10.dtd">
<svg version="1.0" xmlns="http://www.w3.org/2000/svg"
 width="1280.000000pt" height="878.000000pt" viewBox="0 0 1280.000000 878.000000"
 preserveAspectRatio="xMidYMid meet">

<g transform="translate(0.000000,878.000000) scale(0.100000,-0.100000)"
fill="#000000" stroke="none">
<path d="M3185 8770 c-86 -14 -224 -55 -301 -90 -149 -67 -412 -274 -681 -533
l-112 -109 -195 -39 c-715 -144 -1207 -396 -1490 -764 -81 -105 -104 -142
-164 -262 -118 -235 -185 -514 -223 -928 -17 -178 -25 -5151 -9 -5242 31 -179
134 -314 305 -397 260 -127 690 -124 951 5 137 67 240 183 280 314 9 30 29
222 50 485 81 1029 147 1735 175 1875 45 225 118 382 229 494 76 77 157 123
267 152 88 22 256 35 326 25 l47 -7 0 -1212 c0 -801 4 -1234 11 -1277 64 -394
376 -654 913 -761 l109 -22 81 -82 c232 -237 582 -356 1129 -385 316 -17 643
11 894 75 424 109 677 317 775 637 22 73 23 75 26 901 1 455 6 827 10 827 4 0
57 -6 117 -14 61 -8 149 -17 198 -21 l87 -7 0 -556 c0 -342 4 -582 11 -622 68
-419 424 -693 1015 -779 l120 -18 64 -52 c180 -145 485 -248 843 -286 186 -19
548 -19 729 0 548 58 911 243 1067 544 53 104 79 193 91 319 6 68 10 670 10
1647 l0 1540 41 105 c113 290 158 618 138 1004 -20 383 -80 699 -195 1020 -46
127 -132 318 -184 408 -22 38 -40 72 -40 74 0 2 142 4 316 4 l315 0 72 -73
c126 -129 375 -275 541 -317 132 -33 274 -25 388 23 49 21 125 92 150 141 22
42 29 128 15 181 -8 31 -8 31 75 65 67 27 95 45 143 94 88 88 105 158 61 251
-40 87 -148 163 -284 201 l-60 17 -4 77 c-4 61 -10 87 -32 124 -34 58 -102
109 -184 135 -77 26 -220 28 -307 6 -146 -38 -318 -148 -473 -302 l-103 -103
-510 0 -510 0 -117 106 c-572 519 -1306 796 -2262 855 -250 15 -1718 -1 -2350
-26 l-146 -6 -43 62 c-151 214 -379 377 -621 445 -80 22 -122 27 -260 31 -204
6 -315 -14 -493 -87 l-118 -49 -72 39 c-150 81 -293 119 -462 125 -66 2 -147
0 -180 -5z m241 -201 c82 -11 234 -55 234 -67 0 -4 -48 -34 -107 -66 -60 -32
-196 -112 -304 -176 l-196 -118 -164 -12 c-90 -6 -225 -17 -299 -25 -74 -8
-136 -13 -137 -11 -8 8 253 227 372 313 127 91 255 143 400 162 99 12 114 12
201 0z m1216 -33 c379 -75 646 -361 814 -876 170 -518 224 -1356 119 -1849
-60 -287 -198 -522 -383 -659 -136 -101 -275 -156 -512 -202 -166 -33 -236
-56 -324 -108 -158 -92 -256 -263 -256 -444 0 -93 43 -150 114 -150 77 0 102
39 108 168 3 75 8 98 31 136 56 96 152 151 332 191 61 14 111 23 113 22 2 -2
-26 -153 -62 -338 -36 -184 -66 -345 -66 -357 0 -13 7 -32 17 -42 14 -16 34
-18 194 -18 l179 0 30 28 c29 25 33 39 74 247 42 209 45 220 75 247 l31 28
203 0 c497 0 688 57 903 267 174 170 260 371 271 628 6 158 -8 231 -68 346
-95 183 -237 253 -579 285 -91 9 -166 17 -166 17 -1 1 3 49 8 107 16 182 -9
641 -53 945 -40 283 -123 592 -209 782 -17 36 -28 68 -25 71 13 14 1940 47
2195 38 537 -19 953 -94 1357 -243 149 -55 428 -192 528 -259 331 -222 606
-493 799 -784 34 -52 66 -100 69 -106 3 -6 -65 60 -151 146 -227 226 -451 387
-725 521 l-99 48 -517 -692 -518 -692 23 -35 c45 -71 59 -136 59 -275 0 -123
-5 -154 -93 -600 -106 -534 -107 -538 -201 -587 -53 -28 -55 -28 -235 -28
-204 0 -243 10 -286 70 -37 52 -36 112 5 323 20 104 35 190 33 193 -3 2 -1309
-1738 -1594 -2124 -9 -12 -17 -13 -42 -4 -26 9 -35 8 -51 -6 -10 -9 -283 -370
-606 -802 -324 -432 -589 -786 -591 -788 -1 -2 -16 4 -33 12 -16 9 -39 16 -49
16 -13 0 -22 9 -26 27 -4 16 -34 82 -66 149 -65 132 -151 239 -221 274 -45 24
-116 26 -164 6 -45 -19 -115 -84 -161 -152 l-37 -54 -48 6 c-80 11 -142 -17
-225 -100 -39 -39 -86 -98 -105 -131 l-34 -60 -5 1247 -5 1248 -28 27 c-22 22
-37 28 -73 28 -39 0 -50 -5 -75 -33 -18 -20 -29 -43 -29 -62 0 -17 -3 -30 -7
-30 -3 0 -77 23 -162 51 -86 28 -230 70 -321 93 l-166 41 49 35 c145 104 289
318 381 563 68 183 126 482 126 657 l0 55 63 29 c104 49 237 207 237 283 0 26
-44 63 -74 63 -30 0 -48 -16 -81 -74 -39 -70 -86 -118 -142 -146 -39 -21 -62
-25 -128 -25 -97 1 -142 21 -227 101 -59 56 -74 62 -111 43 -30 -16 -37 -28
-37 -65 0 -26 12 -42 64 -92 73 -68 150 -108 238 -125 l59 -11 -6 -70 c-12
-142 -27 -243 -51 -355 -84 -377 -269 -668 -497 -781 l-87 -43 -172 -8 c-205
-9 -292 -28 -423 -93 -166 -83 -276 -193 -364 -366 -61 -119 -95 -221 -126
-375 -31 -155 -92 -801 -174 -1831 -43 -537 -43 -540 -112 -619 -104 -119
-339 -180 -598 -155 -240 23 -394 108 -448 249 -16 42 -18 94 -20 571 -1 289
-7 1013 -13 1610 -12 1129 -1 2747 20 2990 45 516 136 834 313 1100 74 112
260 292 392 379 361 241 885 394 1625 476 74 8 138 15 142 15 4 0 1 -15 -7
-33 -18 -44 -9 -82 28 -113 53 -45 89 -33 283 93 619 402 1052 630 1294 678
88 18 262 18 352 1z m7525 -1056 c43 -19 59 -47 51 -87 -3 -16 -18 -19 -118
-25 -111 -8 -392 -43 -427 -54 -26 -8 30 39 112 94 130 88 284 117 382 72z
m278 -353 c44 -14 96 -39 115 -56 l35 -29 -20 -22 c-106 -118 -462 -141 -895
-59 -133 25 -260 60 -260 70 0 19 289 86 490 113 67 10 168 14 280 12 158 -2
183 -5 255 -29z m-398 -417 c89 -6 176 -9 192 -5 28 6 32 3 47 -29 16 -32 16
-36 0 -60 -25 -38 -73 -59 -151 -64 -91 -6 -168 14 -287 74 -79 40 -208 119
-208 127 0 2 55 -4 123 -14 67 -9 195 -22 284 -29z m-2189 -525 c159 -18 237
-35 337 -74 324 -125 460 -490 339 -909 -62 -215 -188 -399 -366 -535 -205
-157 -409 -207 -842 -207 l-201 0 -43 -212 c-48 -243 -62 -274 -147 -317 -44
-23 -63 -26 -187 -29 -219 -6 -278 8 -331 80 -41 55 -38 73 162 1093 104 534
193 979 197 990 15 43 59 88 108 111 l51 24 395 0 c284 0 433 -4 528 -15z
m-3951 -426 c205 -28 287 -126 269 -323 -22 -234 -128 -425 -265 -477 -101
-38 -229 -59 -396 -66 -155 -5 -161 -5 -188 17 -43 34 -33 58 58 132 174 141
333 417 385 666 15 71 9 69 137 51z m-2822 -2100 c39 -11 154 -48 258 -81
l187 -62 -1 -1045 0 -1046 -27 90 c-36 118 -81 213 -124 261 -25 28 -45 68
-68 139 -67 203 -158 342 -241 367 -60 18 -107 -1 -168 -68 l-51 -56 0 780 0
779 83 -19 c45 -10 114 -28 152 -39z m4 -1475 c58 -52 183 -322 155 -331 -72
-24 -138 -99 -183 -209 -76 -179 -122 -427 -103 -543 6 -36 14 -77 18 -90 6
-21 5 -23 -17 -16 -78 23 -163 124 -201 240 -32 96 -31 263 1 424 28 143 89
330 137 421 39 75 102 140 134 140 11 0 38 -16 59 -36z m4358 -40 c40 -43 96
-150 129 -248 13 -38 23 -70 21 -71 -1 -1 -17 -7 -34 -14 -92 -37 -176 -201
-234 -457 -25 -113 -31 -309 -11 -358 7 -16 11 -31 8 -33 -10 -10 -85 39 -123
80 -49 53 -74 100 -99 182 -79 265 122 955 278 955 22 0 40 -10 65 -36z m1400
-341 c37 -17 96 -85 140 -161 27 -45 103 -216 103 -230 0 -4 -13 -16 -30 -25
-68 -40 -155 -196 -210 -375 -92 -302 -78 -521 41 -657 l31 -35 -28 -10 c-89
-34 -214 -17 -307 42 -97 62 -181 191 -213 326 -71 302 141 1002 340 1123 38
23 87 24 133 2z m-5547 -49 c86 -73 183 -382 183 -584 1 -136 -43 -239 -125
-296 -103 -72 -230 -21 -294 118 -27 60 -29 70 -28 193 1 112 5 147 32 249 49
186 136 346 188 346 7 0 27 -12 44 -26z m1189 -19 c55 -28 121 -116 181 -240
78 -159 77 -155 31 -186 -107 -74 -229 -372 -261 -638 -18 -143 11 -271 84
-370 20 -27 36 -51 36 -54 0 -13 -108 -29 -162 -24 -132 12 -268 117 -332 259
-76 167 -81 313 -20 588 36 162 86 307 149 435 100 202 199 280 294 230z
m3197 -61 c44 -65 101 -226 129 -359 25 -119 23 -256 -5 -329 -38 -100 -126
-175 -204 -176 -110 -1 -210 129 -223 292 -11 123 39 348 108 498 76 161 124
180 195 74z m778 -72 c3 -5 -18 -69 -46 -143 -61 -162 -101 -317 -124 -476
-25 -182 -8 -324 55 -456 l28 -59 -36 7 c-157 28 -303 190 -317 355 -19 207
151 623 299 734 51 37 128 58 141 38z m-4347 -76 c1 -1 -11 -36 -28 -77 -127
-310 -185 -650 -145 -838 8 -41 29 -103 46 -139 17 -36 28 -67 25 -70 -7 -8
-83 17 -136 44 -110 55 -195 184 -206 310 -17 214 149 626 298 736 48 36 123
53 146 34z m5117 -219 c145 -151 257 -584 200 -778 -56 -192 -236 -289 -391
-210 -57 29 -128 112 -153 179 -56 147 -18 419 90 649 94 201 170 249 254 160z
m-4381 -45 c121 -80 256 -468 245 -700 -5 -81 -10 -102 -42 -167 -57 -116
-142 -175 -251 -175 -109 0 -194 59 -251 175 -32 65 -37 86 -42 167 -9 193 78
487 192 646 50 70 97 87 149 54z m-1312 -451 c6 -41 14 -81 17 -89 7 -19 -28
-13 -146 24 l-83 27 49 28 c53 30 90 68 125 130 l22 39 2 -43 c2 -23 8 -75 14
-116z"/>
<path d="M1566 7019 c-221 -32 -397 -117 -523 -252 -69 -74 -82 -110 -59 -159
21 -43 63 -68 116 -68 40 0 48 5 119 79 88 90 141 128 254 181 194 91 420 119
598 74 74 -18 119 -18 147 2 50 35 20 72 -83 103 -152 46 -408 63 -569 40z"/>
<path d="M7119 6622 l-32 -29 -189 -959 c-104 -527 -189 -976 -190 -997 -4
-67 9 -72 200 -75 153 -2 170 -1 200 18 18 11 37 31 42 44 5 14 54 258 110
543 56 285 108 528 116 540 34 53 46 55 281 51 199 -3 222 -5 266 -25 102 -47
101 -102 -12 -679 -45 -226 -81 -420 -81 -431 0 -12 12 -31 26 -42 25 -19 40
-21 188 -21 142 0 165 2 193 20 17 10 36 27 42 38 15 28 192 936 198 1019 13
159 -49 309 -151 368 -99 57 -261 82 -595 91 -208 7 -236 9 -253 26 -24 24
-24 32 18 247 42 215 44 234 19 261 -17 19 -30 20 -191 20 l-174 0 -31 -28z"/>
<path d="M1945 6411 c-188 -50 -360 -134 -437 -213 -140 -144 -161 -400 -43
-539 13 -17 32 -45 40 -63 85 -179 337 -240 550 -134 82 42 130 82 182 151
166 227 64 498 -206 547 -68 12 -152 6 -215 -17 -55 -19 -55 -10 1 22 163 95
311 217 300 248 -6 19 -95 18 -172 -2z m126 -343 c107 -49 159 -133 159 -255
0 -71 -14 -85 -23 -22 -7 55 -52 125 -105 162 -49 36 -140 48 -192 27 -35 -14
-90 -73 -90 -96 0 -9 26 -27 65 -45 36 -16 65 -33 65 -37 0 -4 -27 -27 -60
-50 -33 -24 -60 -46 -60 -51 0 -4 13 -26 29 -48 44 -60 124 -97 198 -91 l57 5
-30 -24 c-79 -64 -210 -99 -309 -83 -157 26 -255 144 -243 294 20 242 318 416
539 314z m63 -209 c46 -54 29 -141 -24 -124 -44 14 -69 123 -32 144 25 15 28
14 56 -20z"/>
<path d="M8930 6083 c-21 -11 -42 -32 -51 -53 -9 -19 -101 -469 -205 -999
-173 -891 -186 -966 -173 -990 l15 -26 174 -3 c110 -1 184 2 201 8 40 17 55
59 94 260 41 210 48 233 83 260 23 18 41 20 231 20 493 0 691 59 901 270 155
154 244 343 269 574 31 274 -74 504 -272 596 -71 34 -185 64 -302 81 -45 6
-268 13 -505 16 -395 4 -427 3 -460 -14z m894 -344 c135 -45 185 -131 173
-299 -14 -182 -83 -345 -185 -436 -67 -59 -251 -102 -474 -111 -136 -5 -160
-4 -182 11 -14 9 -28 27 -31 39 -6 24 130 739 147 770 5 10 24 27 41 38 30 19
44 20 237 16 181 -4 213 -7 274 -28z"/>
<path d="M9360 5664 c0 -3 -29 -153 -65 -334 -36 -181 -65 -331 -65 -334 0
-18 269 4 378 30 91 23 133 46 175 95 88 103 142 362 96 463 -16 35 -81 64
-170 76 -80 10 -349 14 -349 4z"/>
</g>
</svg>
