<svg xmlns="http://www.w3.org/2000/svg" viewBox="0 0 16 16" fill="#FFFFFF">
  <path d="M8 0C3.58 0 0 3.58 0 8c0 3.536 2.292 6.537 5.474 7.597.4.074.544-.174.544-.387 0-.19-.007-.69-.01-1.356-2.22.48-2.69-1.04-2.69-1.04-.362-.92-.887-1.16-.887-1.16-.723-.493.055-.483.055-.483.8.056 1.22.848 1.22.848.71 1.2 1.862.853 2.31.651.072-.517.278-.854.5-1.053-1.776-.202-3.647-.888-3.647-3.945 0-.87.313-1.582.832-2.138-.084-.205-.36-.74.078-1.53 0 0 .667-.21 2.19.828a7.625 7.625 0 0 1 4.01 0c1.523-1.038 2.19-.828 2.19-.828.436.792.162 1.325.078 1.53.519.556.832 1.268.832 2.138 0 3.064-1.88 3.742-3.66 3.944.287.246.553.73.553 1.474 0 1.063-.01 1.92-.01 2.18 0 .216.144.465.552.387C13.708 14.537 16 11.537 16 8c0-4.42-3.58-8-8-8z"></path>
</svg>
